<?xml version="1.0" encoding="UTF-8" standalone="no"?>
<!DOCTYPE svg PUBLIC "-//W3C//DTD SVG 1.1//EN"
 "http://www.w3.org/Graphics/SVG/1.1/DTD/svg11.dtd">
<!-- Generated by graphviz version 2.26.3 (20100126.1600)
 -->
<!-- Title: G Pages: 1 -->
<svg width="636pt" height="350pt"
 viewBox="0.00 0.00 636.00 350.00" xmlns="http://www.w3.org/2000/svg" xmlns:xlink="http://www.w3.org/1999/xlink">
<g id="graph1" class="graph" transform="scale(1 1) rotate(0) translate(4 346)">
<title>G</title>
<polygon fill="white" stroke="white" points="-4,5 -4,-346 633,-346 633,5 -4,5"/>
<g id="graph2" class="cluster"><title>cluster_Global</title>
<polyline fill="none" stroke="gray" points="91,-98 608,-98 "/>
<path fill="none" stroke="gray" d="M608,-98C614,-98 620,-104 620,-110"/>
<polyline fill="none" stroke="gray" points="620,-110 620,-322 "/>
<path fill="none" stroke="gray" d="M620,-322C620,-328 614,-334 608,-334"/>
<polyline fill="none" stroke="gray" points="608,-334 91,-334 "/>
<path fill="none" stroke="gray" d="M91,-334C85,-334 79,-328 79,-322"/>
<polyline fill="none" stroke="gray" points="79,-322 79,-110 "/>
<path fill="none" stroke="gray" d="M79,-110C79,-104 85,-98 91,-98"/>
<text text-anchor="middle" x="349.5" y="-320.1" font-family="Times Roman,serif" font-size="11.00" fill="gray">Global</text>
</g>
<!-- \\DynamicDatabaseConfigTest1 -->
<g id="node2" class="node"><title>\\DynamicDatabaseConfigTest1</title>
<polygon fill="none" stroke="black" points="605,-304 413,-304 413,-268 605,-268 605,-304"/>
<text text-anchor="middle" x="509" y="-283.1" font-family="Courier,monospace" font-size="11.00">DynamicDatabaseConfigTest1</text>
</g>
<!-- \\DynamicDatabaseConfig -->
<g id="node6" class="node"><title>\\DynamicDatabaseConfig</title>
<polygon fill="none" stroke="black" points="246,-277 88,-277 88,-241 246,-241 246,-277"/>
<text text-anchor="start" x="133" y="-264.433" font-family="Courier,monospace" font-size="11.00">«abstract»</text>
<text text-anchor="start" x="96" y="-251.233" font-family="Courier,monospace" font-size="11.00">DynamicDatabaseConfig</text>
</g>
<!-- \\DynamicDatabaseConfigTest1&#45;&gt;\\DynamicDatabaseConfig -->
<g id="edge3" class="edge"><title>\\DynamicDatabaseConfigTest1&#45;&gt;\\DynamicDatabaseConfig</title>
<path fill="none" stroke="black" d="M412.824,-278.407C363.853,-274.541 304.683,-269.87 256.667,-266.079"/>
<polygon fill="none" stroke="black" points="256.843,-262.582 246.598,-265.284 256.292,-269.56 256.843,-262.582"/>
</g>
<!-- \\DynamicDatabaseConfigTest2 -->
<g id="node3" class="node"><title>\\DynamicDatabaseConfigTest2</title>
<polygon fill="none" stroke="black" points="605,-250 413,-250 413,-214 605,-214 605,-250"/>
<text text-anchor="middle" x="509" y="-229.1" font-family="Courier,monospace" font-size="11.00">DynamicDatabaseConfigTest2</text>
</g>
<!-- \\DynamicDatabaseConfigTest2&#45;&gt;\\DynamicDatabaseConfig -->
<g id="edge5" class="edge"><title>\\DynamicDatabaseConfigTest2&#45;&gt;\\DynamicDatabaseConfig</title>
<path fill="none" stroke="black" d="M412.824,-239.593C363.853,-243.459 304.683,-248.13 256.667,-251.921"/>
<polygon fill="none" stroke="black" points="256.292,-248.44 246.598,-252.716 256.843,-255.418 256.292,-248.44"/>
</g>
<!-- \\DynamicDatabaseConfigTest -->
<g id="node4" class="node"><title>\\DynamicDatabaseConfigTest</title>
<polygon fill="none" stroke="black" points="601,-196 417,-196 417,-160 601,-160 601,-196"/>
<text text-anchor="middle" x="509" y="-175.1" font-family="Courier,monospace" font-size="11.00">DynamicDatabaseConfigTest</text>
</g>
<!-- \\CakeTestCase -->
<g id="node10" class="node"><title>\\CakeTestCase</title>
<ellipse fill="none" stroke="black" cx="167" cy="-72" rx="82.0244" ry="18.3848"/>
<text text-anchor="middle" x="167" y="-68.4" font-family="Times Roman,serif" font-size="14.00" fill="gray">\CakeTestCase</text>
</g>
<!-- \\DynamicDatabaseConfigTest&#45;&gt;\\CakeTestCase -->
<g id="edge7" class="edge"><title>\\DynamicDatabaseConfigTest&#45;&gt;\\CakeTestCase</title>
<path fill="none" stroke="black" d="M427.158,-159.922C419.856,-157.306 412.699,-154.344 406,-151 369.483,-132.771 371.587,-109.905 334,-94 310.685,-84.1339 284.04,-78.4248 258.985,-75.1894"/>
<polygon fill="none" stroke="black" points="259.071,-71.6756 248.732,-73.9885 258.257,-78.6281 259.071,-71.6756"/>
</g>
<!-- \\AllDynamicDatabaseConfigTest -->
<g id="node5" class="node"><title>\\AllDynamicDatabaseConfigTest</title>
<polygon fill="none" stroke="black" points="612,-142 406,-142 406,-106 612,-106 612,-142"/>
<text text-anchor="middle" x="509" y="-121.1" font-family="Courier,monospace" font-size="11.00">AllDynamicDatabaseConfigTest</text>
</g>
<!-- \\PHPUnit_Framework_TestSuite -->
<g id="node12" class="node"><title>\\PHPUnit_Framework_TestSuite</title>
<ellipse fill="none" stroke="black" cx="167" cy="-18" rx="166.877" ry="18.3848"/>
<text text-anchor="middle" x="167" y="-14.4" font-family="Times Roman,serif" font-size="14.00" fill="gray">\PHPUnit_Framework_TestSuite</text>
</g>
<!-- \\AllDynamicDatabaseConfigTest&#45;&gt;\\PHPUnit_Framework_TestSuite -->
<g id="edge9" class="edge"><title>\\AllDynamicDatabaseConfigTest&#45;&gt;\\PHPUnit_Framework_TestSuite</title>
<path fill="none" stroke="black" d="M476.141,-105.991C441.708,-87.8884 385.553,-60.5059 334,-45 318.977,-40.4816 302.953,-36.6733 287,-33.4754"/>
<polygon fill="none" stroke="black" points="287.567,-30.0205 277.085,-31.5623 286.241,-36.8937 287.567,-30.0205"/>
</g>
</g>
</svg>
